<svg xmlns="http://www.w3.org/2000/svg" viewBox="0 0 116.47 84.63"><defs><style>.cls-1{fill:#fff;}.cls-2{font-size:3.36px;fill:#1face3;font-family:Runelike, Runelike;letter-spacing:0.58em;}.cls-3{fill:#2face3;}.cls-4{fill:#0093d9;}.cls-5{fill:#5fc5f1;}</style></defs><title>Asset 1</title><g id="Layer_2" data-name="Layer 2"><g id="Layer_1-2" data-name="Layer 1"><g id="_Group_" data-name="&lt;Group&gt;"><g id="_Group_2" data-name="&lt;Group&gt;"><g id="_Group_3" data-name="&lt;Group&gt;"><path id="_Compound_Path_" data-name="&lt;Compound Path&gt;" class="cls-1" d="M2.94,65v2.33H6.58V70H2.94v2.3H9.55V75H0V62.27H9.55V65Z"/><path id="_Compound_Path_2" data-name="&lt;Compound Path&gt;" class="cls-1" d="M25.24,65v2.33h3.64V70H25.24v5H22.3V62.27h9.55V65Z"/><path id="_Compound_Path_3" data-name="&lt;Compound Path&gt;" class="cls-1" d="M47.89,75h-3V62.27h3Z"/><path id="_Compound_Path_4" data-name="&lt;Compound Path&gt;" class="cls-1" d="M64.22,65v2.33h3.64V70H64.22v2.3h6.61V75H61.28V62.27h9.55V65Z"/><path id="_Compound_Path_5" data-name="&lt;Compound Path&gt;" class="cls-1" d="M94.7,75H92.08l-5.71-8.61V75h-3V62.27h4.28l4,6.12V62.27h3Z"/><path id="_Compound_Path_6" data-name="&lt;Compound Path&gt;" class="cls-1" d="M115,75h-7.48v-2.7h6V69.9H109a1.56,1.56,0,0,1-1.06-.39,1.26,1.26,0,0,1-.45-1v-5a1.21,1.21,0,0,1,.45-.94,1.57,1.57,0,0,1,1.06-.4h7.45v2.71h-5.94v2.24H115a1.5,1.5,0,0,1,1.05.4,1.24,1.24,0,0,1,.43,1v5.1a1.25,1.25,0,0,1-.43,1A1.54,1.54,0,0,1,115,75Z"/></g><text class="cls-2" transform="translate(6.61 84.21)">Efficient-Sage-Formidable</text></g><g id="_Group_4" data-name="&lt;Group&gt;"><g id="_Group_5" data-name="&lt;Group&gt;"><path id="_Compound_Path_7" data-name="&lt;Compound Path&gt;" class="cls-3" d="M76,12.72l4.46-9.17L75.65,8.29,73.5,7.19l1.9.3L70.21,3.77,67.39,7.08,68,10.45,66.67,7.92l0-.07h0L66,6.69l-3.2-1-4.6,1.06-4.6-1.06-3.21,1-.59,1.15h0l0,.07-1.29,2.53v-.11h0l.56-3.25L46.27,3.77l-5.2,3.72,1.9-.3-2.15,1.1L36.06,3.55l4.46,9.17L46,11.16l.84,2.34-1.34,1.25.93,2.66-1.88,5.24,3.3,3.15,2.6.72,2.1,9.14,2.86,2.53,2.85,1.6,2.84-1.6,2.86-2.53L66,26.52l2.6-.72,3.3-3.15-1.87-5.24L71,14.75,69.65,13.5l.84-2.34ZM54.33,21.79l-.08-.31-5-3.83,6.4,2.84.61,5.65h0l.63,5.79-2.16-8.42-1.4.54-4.21-2.72ZM57.64,38.1,55.2,34.48l1.55,1.16,1,2.62ZM57.3,17.51h.54l-1.35-2.76h.86l-1.29-3.17,2.18,1.21,2.17-1.21-1.29,3.17H60l-1.34,2.76h.53l-.93,2.1Zm1.37,20.75,1-2.62,1.56-1.16ZM63.1,24.05l-1.4-.54-2.15,8.42.62-5.79h0l.61-5.65,6.4-2.84-5,3.83-.08.31,5.18-.46Z"/><polygon id="_Path_" data-name="&lt;Path&gt;" class="cls-1" points="59.98 14.75 58.63 17.51 59.17 17.51 58.24 19.61 57.3 17.51 57.84 17.51 56.49 14.75 57.35 14.75 56.06 11.58 58.24 12.79 60.41 11.58 59.12 14.75 59.98 14.75"/><polygon id="_Path_2" data-name="&lt;Path&gt;" class="cls-4" points="44.48 14.43 43.18 13.89 41.53 14.67 39.1 13.61 42.1 19.3 44.48 20.15 45.2 18.22 42.19 15.93 45.32 17.06 44.48 14.43"/><polygon id="_Path_3" data-name="&lt;Path&gt;" class="cls-5" points="51.62 38.25 46.2 34.93 35.84 21.06 32.29 0 39.69 18.96 47.67 27.16 49.39 27.7 51.62 38.25"/><polygon id="_Path_4" data-name="&lt;Path&gt;" class="cls-4" points="72 20.15 74.37 19.3 77.38 13.61 74.94 14.67 73.3 13.89 72 14.43 71.15 17.06 74.28 15.93 71.27 18.22 72 20.15"/><polygon id="_Path_5" data-name="&lt;Path&gt;" class="cls-5" points="67.08 27.71 64.85 38.25 70.28 34.94 80.64 21.06 84.18 0 76.79 18.96 68.81 27.16 67.08 27.71"/><path id="_Compound_Path_8" data-name="&lt;Compound Path&gt;" class="cls-4" d="M80,24.05,70.71,36.36l-6,4-2,3.84,1-5.84-1,2-.86-1.26-1,2.62-.7-1.33-1.16,2.44-.81-.74-.82.74-1.16-2.44-.69,1.33-1-2.62-.87,1.26-1-2,1,5.84-2-3.84-6-4L36.53,24.05l-1.11,7.88,2.44,3.75.47-2.34L39,37.79l4.22,4.94.1-1.93,2,3.35,6,3.17-.67-2,2.74,2.92,3.93,2,1,1,1-1,3.92-2,2.75-2.92-.67,2,6-3.17,2-3.35.1,1.93,4.22-4.94.7-4.45.46,2.34,2.45-3.75ZM58.24,47.48l-2.76-3.23,2.76,1.63L61,44.25Z"/></g><polygon id="_Path_6" data-name="&lt;Path&gt;" class="cls-4" points="36.06 3.54 41.15 10.45 46.57 8.65 48.12 11.42 49.84 7.84 49.63 12.54 52.42 15.36 49.8 14.14 50.66 17.07 56.54 20.39 56.3 26.14 55.69 20.49 49.29 17.64 51.62 19.93 47.59 17.92 44.53 22.65 46.41 17.41 45.48 14.75 46.82 13.5 45.98 11.16 40.52 12.72 36.06 3.54"/><polygon id="_Path_7" data-name="&lt;Path&gt;" class="cls-4" points="49.16 21.33 52.54 25.4 54.19 25.6 57.38 34.9 56.93 31.93 54.77 23.51 53.37 24.05 49.16 21.33"/><polygon id="_Path_8" data-name="&lt;Path&gt;" class="cls-4" points="80.41 3.54 75.33 10.45 69.9 8.65 68.35 11.42 66.63 7.84 66.84 12.54 64.05 15.36 66.67 14.14 65.81 17.07 59.93 20.39 60.17 26.14 60.78 20.49 67.18 17.64 64.85 19.93 68.88 17.92 71.94 22.65 70.06 17.41 70.99 14.75 69.65 13.5 70.49 11.16 75.95 12.72 80.41 3.54"/><polygon id="_Path_9" data-name="&lt;Path&gt;" class="cls-4" points="67.32 21.33 63.94 25.4 62.29 25.6 59.09 34.9 59.55 31.93 61.7 23.51 63.1 24.05 67.32 21.33"/><polygon id="_Path_10" data-name="&lt;Path&gt;" class="cls-3" points="51.62 38.25 46.2 34.93 35.84 21.06 32.29 0 37.14 19.61 43.4 26.98 40.9 25.2 47.13 32.29 49.44 33.25 49.39 27.7 51.62 38.25"/><polygon id="_Path_11" data-name="&lt;Path&gt;" class="cls-3" points="64.86 38.25 70.28 34.93 80.63 21.06 84.18 0 79.34 19.61 73.07 26.98 75.58 25.2 69.34 32.29 67.03 33.25 67.08 27.7 64.86 38.25"/></g></g></g></g></svg>